<svg width="300" height="300" viewBox="0 0 300 300" fill="none" xmlns="http://www.w3.org/2000/svg">
<path d="M277.788 228.55C256.956 262.442 223.513 286.669 184.817 295.903C146.121 305.137 105.341 298.621 71.4499 277.788L106.187 221.277C125.091 232.897 147.836 236.532 169.42 231.381C191.004 226.231 209.657 212.717 221.277 193.813L277.788 228.55Z" fill="#10B981"/>
<path d="M71.5848 277.871C47.8817 263.336 28.6852 242.498 16.1387 217.684C3.59227 192.871 -1.81032 165.058 0.534176 137.352L66.4873 142.933C65.1773 158.414 68.1959 173.954 75.2062 187.818C82.2164 201.682 92.9423 213.325 106.186 221.447L71.5848 277.871Z" fill="#059669"/>
<path d="M0.511032 137.629C2.08001 118.67 7.24103 100.183 15.7189 83.1525L74.902 112.615C70.1607 122.139 67.2744 132.478 66.3969 143.081L0.511032 137.629Z" fill="#047857"/>
<path d="M15.2908 84.0195C22.1593 69.9965 31.1752 57.1319 42.0127 45.8907L89.5656 91.7359C83.5004 98.027 78.4547 105.227 74.6108 113.074L15.2908 84.0195Z" fill="#838383"/>
<path d="M40.4323 47.5553C50.9299 36.3278 63.0908 26.7805 76.489 19.2478L108.798 76.7158C101.289 80.9377 94.473 86.2888 88.5893 92.5816L40.4323 47.5553Z" fill="#686868"/>
<path d="M76.2946 19.3573C89.2533 12.0463 103.228 6.70402 117.759 3.50594L131.937 67.9261C123.796 69.7178 115.966 72.7108 108.706 76.8069L76.2946 19.3573Z" fill="#525252"/>
<path d="M117.516 3.55969C128.199 1.18977 139.11 -0.0038938 150.053 9.54187e-06L150.03 65.9603C143.899 65.9581 137.786 66.6268 131.8 67.9546L117.516 3.55969Z" fill="#383838"/>
<path d="M150 0C176.682 3.18175e-07 202.88 7.11689 225.895 20.6168C248.909 34.1167 267.906 53.511 280.926 76.7998C293.947 100.089 300.52 126.429 299.968 153.105C299.416 179.781 291.758 205.826 277.785 228.556L221.378 193.88C229.183 181.183 233.46 166.635 233.769 151.734C234.077 136.834 230.406 122.121 223.133 109.112C215.86 96.1033 205.248 85.2701 192.393 77.7293C179.538 70.1885 164.904 66.2132 150 66.2132V0Z" fill="#34D399"/>
</svg>
