<svg width="356" height="59" viewBox="0 0 356 59" fill="none" xmlns="http://www.w3.org/2000/svg">
<path d="M16.3086 38.1865L24.3652 11.4531H32.5195L20.1416 47H12.5L0.170898 11.4531H8.30078L16.3086 38.1865ZM67.2461 30.0322C67.2461 33.5316 66.6276 36.5996 65.3906 39.2363C64.1536 41.873 62.3796 43.9076 60.0684 45.3398C57.7734 46.7721 55.1367 47.4883 52.1582 47.4883C49.2122 47.4883 46.5837 46.7803 44.2725 45.3643C41.9613 43.9482 40.1709 41.93 38.9014 39.3096C37.6318 36.6729 36.9889 33.6455 36.9727 30.2275V28.4697C36.9727 24.9704 37.5993 21.8942 38.8525 19.2412C40.1221 16.5719 41.9043 14.5293 44.1992 13.1133C46.5104 11.681 49.1471 10.9648 52.1094 10.9648C55.0716 10.9648 57.7002 11.681 59.9951 13.1133C62.3063 14.5293 64.0885 16.5719 65.3418 19.2412C66.6113 21.8942 67.2461 24.9622 67.2461 28.4453V30.0322ZM59.8242 28.4209C59.8242 24.6937 59.1569 21.8617 57.8223 19.9248C56.4876 17.988 54.5833 17.0195 52.1094 17.0195C49.6517 17.0195 47.7555 17.9798 46.4209 19.9004C45.0863 21.8047 44.4108 24.6042 44.3945 28.2988V30.0322C44.3945 33.6618 45.0618 36.4775 46.3965 38.4795C47.7311 40.4814 49.6517 41.4824 52.1582 41.4824C54.6159 41.4824 56.5039 40.5221 57.8223 38.6016C59.1406 36.6647 59.8079 33.849 59.8242 30.1543V28.4209ZM89.3994 11.4531H96.7236V36.0625C96.7236 38.3249 96.2191 40.3268 95.21 42.0684C94.2171 43.7936 92.8092 45.1283 90.9863 46.0723C89.1634 47.0163 87.1045 47.4883 84.8096 47.4883C81.0498 47.4883 78.1201 46.5361 76.0205 44.6318C73.9209 42.7113 72.8711 40.0013 72.8711 36.502H80.2441C80.2441 38.2435 80.6104 39.5293 81.3428 40.3594C82.0752 41.1895 83.2308 41.6045 84.8096 41.6045C86.2093 41.6045 87.3242 41.1243 88.1543 40.1641C88.9844 39.2038 89.3994 37.8366 89.3994 36.0625V11.4531Z" fill="#4D4D4D"/>
<path d="M121.932 17.3857H111.043V47H103.719V17.3857H92.9766V11.4531H121.932V17.3857ZM150.018 31.5947H135.955V41.1162H152.459V47H128.631V11.4531H152.41V17.3857H135.955V25.8574H150.018V31.5947ZM140.96 5.3252L144.524 1.83398H150.555V2.10254L143.182 8.96289H138.714L131.341 2.05371V1.83398H137.371L140.96 5.3252ZM187.161 35.1592C186.884 38.984 185.468 41.9951 182.913 44.1924C180.374 46.3896 177.021 47.4883 172.854 47.4883C168.297 47.4883 164.708 45.9583 162.088 42.8984C159.484 39.8223 158.182 35.6068 158.182 30.252V28.0791C158.182 24.6611 158.784 21.6501 159.988 19.0459C161.193 16.4417 162.91 14.4479 165.14 13.0645C167.386 11.6647 169.99 10.9648 172.952 10.9648C177.054 10.9648 180.358 12.0635 182.864 14.2607C185.371 16.458 186.819 19.5423 187.21 23.5137H179.886C179.707 21.2188 179.064 19.5586 177.957 18.5332C176.867 17.4915 175.198 16.9707 172.952 16.9707C170.511 16.9707 168.68 17.8496 167.459 19.6074C166.255 21.349 165.636 24.0589 165.604 27.7373V30.4229C165.604 34.264 166.181 37.0716 167.337 38.8457C168.509 40.6198 170.348 41.5068 172.854 41.5068C175.117 41.5068 176.801 40.9941 177.908 39.9688C179.031 38.9271 179.674 37.3239 179.837 35.1592H187.161ZM223.401 47H216.077V31.7656H201.795V47H194.471V11.4531H201.795V25.8574H216.077V11.4531H223.401V47Z" fill="#8F8F8F"/>
<path d="M262.079 35.1592C261.802 38.984 260.386 41.9951 257.831 44.1924C255.292 46.3896 251.939 47.4883 247.772 47.4883C243.215 47.4883 239.626 45.9583 237.006 42.8984C234.402 39.8223 233.1 35.6068 233.1 30.252V28.0791C233.1 24.6611 233.702 21.6501 234.906 19.0459C236.111 16.4417 237.828 14.4479 240.058 13.0645C242.304 11.6647 244.908 10.9648 247.87 10.9648C251.972 10.9648 255.276 12.0635 257.782 14.2607C260.289 16.458 261.737 19.5423 262.128 23.5137H254.804C254.625 21.2188 253.982 19.5586 252.875 18.5332C251.785 17.4915 250.116 16.9707 247.87 16.9707C245.429 16.9707 243.598 17.8496 242.377 19.6074C241.173 21.349 240.554 24.0589 240.521 27.7373V30.4229C240.521 34.264 241.099 37.0716 242.255 38.8457C243.427 40.6198 245.266 41.5068 247.772 41.5068C250.035 41.5068 251.719 40.9941 252.826 39.9688C253.949 38.9271 254.592 37.3239 254.755 35.1592H262.079ZM277.177 47H269.853V11.4531H277.177V47ZM315.395 47H308.07L293.812 23.6113V47H286.488V11.4531H293.812L308.095 34.8906V11.4531H315.395V47ZM344.799 39.6758H331.957L329.516 47H321.728L334.96 11.4531H341.747L355.053 47H347.265L344.799 39.6758ZM333.935 33.7432H342.821L338.354 20.4375L333.935 33.7432Z" fill="white"/>
</svg>
